# xmcd CD database file
#
# Track frame offsets:
#	150
#	21922
#	45410
#	69667
#
# Disc length: 1204 seconds
#
# Revision: 0
# Processed by: cddbd v1.5.1PL0 Copyright (c) Steve Scherf et al.
# Submitted via: CDex 1.51
#
DISCID=2d04b204
DTITLE=関俊彦 - KICKS ON THE WAY
DYEAR=1990
DGENRE=JPop
TTITLE0=KICKS ON THE WAY
TTITLE1=青春アスリート
TTITLE2=10時のシンデレラ
TTITLE3=GOOD BY SUMMER'90
EXTD=YEAR: 1990
EXTT0=
EXTT1=
EXTT2=
EXTT3=
PLAYORDER=
